<svg xmlns="http://www.w3.org/2000/svg" width="43.249" height="59" viewBox="0 0 43.249 59">
    <defs>
        <style>
            .cls-1{fill:url(#linear-gradient)}.cls-2{fill:#dbdbdb}.cls-3{filter:url(#Subtraction_20)}
        </style>
        <linearGradient id="linear-gradient" x1=".5" x2=".5" y2="1" gradientUnits="objectBoundingBox">
            <stop offset="0" stop-color="#b6509e"/>
            <stop offset="1" stop-color="#2ebac6"/>
        </linearGradient>
        <filter id="Subtraction_20" width="43.249" height="59" x="0" y="0" filterUnits="userSpaceOnUse">
            <feOffset dy="1"/>
            <feGaussianBlur result="blur" stdDeviation="1.5"/>
            <feFlood flood-opacity=".161"/>
            <feComposite in2="blur" operator="in"/>
            <feComposite in="SourceGraphic"/>
        </filter>
    </defs>
    <g id="Full_Color_Ghost" data-name="Full Color Ghost" transform="translate(-1138.169 -586.605)">
        <g class="cls-3" transform="translate(1138.17 586.61)">
            <path id="Subtraction_20-2" d="M32.295 50a1.9 1.9 0 0 1-1.9-1.9v-5.537a1.9 1.9 0 1 0-3.8 0v2.627a1.9 1.9 0 0 1-3.8 0v-2.627a1.9 1.9 0 1 0-3.8 0v.715a1.9 1.9 0 0 1-3.8 0v-.715a1.9 1.9 0 1 0-3.8 0v2.627a1.9 1.9 0 0 1-3.8 0v-2.627a1.9 1.9 0 1 0-3.8 0V48.1a1.9 1.9 0 1 1-3.8 0V16.734A17.132 17.132 0 0 1 32.793 10.2a17.035 17.035 0 0 1 1.456 6.53.123.123 0 0 1-.056.121V48.1a1.9 1.9 0 0 1-1.898 1.9zM15.174 21.718c-.482 0-.678.187-.678.648 0 1.121 1.24 2.033 2.764 2.033s2.76-.912 2.76-2.033c0-.46-.2-.647-.677-.647a5.849 5.849 0 0 0-.768.078h-.024a9.047 9.047 0 0 1-1.291.118 9.092 9.092 0 0 1-1.294-.118 5.8 5.8 0 0 0-.792-.079zm8.27-9.231a3.3 3.3 0 0 0-3.044 3.492 3.294 3.294 0 0 0 3.049 3.488 3.292 3.292 0 0 0 3.044-3.488 3.294 3.294 0 0 0-3.049-3.491zm-12.64 0a3.294 3.294 0 0 0-3.044 3.491 3.293 3.293 0 0 0 3.04 3.489 3.293 3.293 0 0 0 3.045-3.488 3.294 3.294 0 0 0-3.045-3.491z" class="cls-1" data-name="Subtraction 20" transform="translate(4.5 3.5)"/>
        </g>
        <ellipse id="Ellipse_560" cx=".751" cy="1.028" class="cls-2" data-name="Ellipse 560" rx=".751" ry="1.028" transform="translate(1154.131 603.672)"/>
        <ellipse id="Ellipse_562" cx=".751" cy="1.028" class="cls-2" data-name="Ellipse 562" rx=".751" ry="1.028" transform="translate(1166.769 603.672)"/>
    </g>
</svg>
